<?xml version="1.0" encoding="UTF-8"?>
<svg xmlns="http://www.w3.org/2000/svg" viewBox="0 0 769 764">
  <g fill="#2f6b5a" fill-rule="evenodd">
    <path d="M 363.56 21.44 L 324.47 23.23 L 314.12 25.16 L 305.16 29.67 L 284.38 32.09 L 275.22 37.67 L 260.03 40.16 L 253.19 45.67 L 241.56 47.09 L 234.81 52.72 L 225.19 55.28 L 218.58 60.72 L 209.88 63.28 L 205.12 68.69 L 195.97 71.19 L 191.28 76.53 L 184.95 79.28 L 178.77 84.91 L 171.16 88.09 L 169.06 91.84 L 162.69 94.33 L 159.31 99.69 L 142.16 113.09 L 125.88 129.12 L 107.42 149.81 L 105.30 153.66 L 99.70 158.34 L 97.34 163.62 L 92.28 168.03 L 89.72 175.12 L 85.16 178.94 L 81.77 187.19 L 77.16 189.94 L 73.77 201.19 L 68.31 204.88 L 65.91 213.77 L 60.28 220.19 L 58.22 228.31 L 52.19 236.12 L 50.67 245.23 L 46.19 251.05 L 44.23 256.00 L 42.67 267.25 L 37.16 276.12 L 34.77 295.91 L 29.09 308.38 L 26.77 333.77 L 22.09 348.00 L 21.00 380.38 L 22.09 420.84 L 26.77 435.28 L 29.09 460.62 L 30.23 465.09 L 34.84 473.31 L 37.09 491.62 L 42.77 499.95 L 44.33 512.22 L 50.67 521.75 L 52.28 530.58 L 58.67 538.73 L 61.19 548.03 L 65.91 552.14 L 68.28 560.97 L 74.30 566.44 L 77.16 576.06 L 81.72 579.88 L 84.70 586.66 L 89.69 590.78 L 93.16 599.06 L 97.53 602.62 L 99.98 607.95 L 105.12 611.12 L 107.88 616.88 L 112.69 619.69 L 123.44 633.44 L 138.12 648.12 L 142.66 650.70 L 156.39 664.30 L 161.22 666.31 L 164.97 670.81 L 171.09 673.33 L 178.22 679.89 L 184.19 682.23 L 186.81 686.77 L 194.62 689.33 L 202.22 695.89 L 207.84 697.47 L 214.94 702.84 L 224.19 705.47 L 227.94 709.84 L 241.94 714.09 L 247.38 718.91 L 259.75 721.38 L 266.03 725.84 L 273.23 727.77 L 283.17 728.33 L 297.22 734.84 L 317.09 736.33 L 330.05 741.77 L 348.89 743.67 L 413.91 743.91 L 437.12 742.84 L 450.78 739.91 L 456.91 736.33 L 477.69 734.84 L 490.84 728.33 L 504.97 726.84 L 513.28 721.19 L 525.97 718.84 L 532.19 713.28 L 542.72 710.95 L 548.06 705.31 L 559.06 702.84 L 563.12 697.19 L 573.12 694.69 L 577.72 689.47 L 583.12 687.69 L 588.81 682.23 L 597.22 678.69 L 601.39 673.70 L 606.88 671.12 L 609.69 666.33 L 617.09 662.67 L 623.66 656.66 L 628.44 654.56 L 631.38 649.66 L 636.44 647.56 L 639.31 642.69 L 644.44 639.56 L 648.34 633.70 L 652.67 631.31 L 654.88 626.12 L 659.67 623.31 L 662.38 617.78 L 666.91 613.84 L 671.66 604.36 L 676.44 601.56 L 679.47 595.58 L 683.91 592.84 L 686.56 585.91 L 692.84 578.06 L 694.70 572.44 L 700.30 567.52 L 702.47 558.81 L 708.53 553.28 L 710.66 544.28 L 716.67 536.62 L 718.47 525.86 L 723.72 520.97 L 726.19 507.52 L 731.91 498.78 L 734.06 480.59 L 737.81 475.95 L 739.91 470.62 L 741.33 448.95 L 745.84 439.88 L 748.67 421.12 L 748.91 356.94 L 747.84 334.78 L 745.84 325.12 L 741.33 314.09 L 740.77 299.47 L 738.91 291.61 L 733.33 283.14 L 731.84 268.03 L 726.23 260.05 L 722.91 246.14 L 717.33 240.20 L 716.56 231.56 L 710.31 225.12 L 708.67 215.77 L 702.28 208.97 L 699.72 200.19 L 694.56 194.09 L 692.67 188.91 L 686.33 181.86 L 684.30 175.44 L 679.47 171.42 L 676.69 165.69 L 670.94 160.84 L 658.91 143.16 L 654.88 140.88 L 650.95 134.98 L 646.88 132.88 L 644.30 128.34 L 638.47 123.38 L 636.44 119.44 L 631.62 117.53 L 627.84 112.09 L 610.58 100.53 L 607.12 95.12 L 601.05 92.02 L 597.84 87.09 L 591.23 84.77 L 585.75 80.08 L 577.97 76.81 L 572.91 71.14 L 563.88 68.69 L 558.91 63.14 L 550.23 60.77 L 541.25 54.33 L 534.25 52.92 L 527.14 47.23 L 515.94 45.53 L 507.97 40.16 L 492.22 37.38 L 486.14 33.23 L 480.12 31.33 L 462.22 29.84 L 453.88 25.16 L 442.20 23.23 L 395.31 21.09 Z M 379.44 31.56 L 413.16 32.16 L 434.94 33.98 L 444.34 33.05 L 464.22 39.84 L 483.08 42.06 L 492.03 47.84 L 506.06 50.23 L 513.91 55.77 L 525.44 58.14 L 534.75 64.67 L 541.94 66.09 L 546.97 70.81 L 554.09 73.23 L 560.27 77.94 L 569.28 81.47 L 574.39 87.30 L 582.06 90.16 L 585.88 94.72 L 594.19 98.23 L 597.58 103.53 L 613.19 113.23 L 616.62 117.53 L 624.31 122.33 L 640.56 138.56 L 653.70 155.66 L 658.53 159.58 L 660.98 164.95 L 666.02 169.06 L 668.31 174.27 L 674.30 179.39 L 677.19 187.03 L 681.91 191.14 L 684.31 198.22 L 689.84 201.94 L 692.70 211.56 L 698.53 216.81 L 701.16 226.06 L 706.77 232.95 L 708.33 242.27 L 714.67 249.83 L 715.44 260.44 L 721.77 268.95 L 724.09 283.78 L 729.67 292.91 L 731.23 314.00 L 737.67 330.31 L 739.00 374.19 L 737.67 432.47 L 731.16 452.31 L 729.67 472.11 L 724.16 481.12 L 721.77 496.95 L 716.08 504.58 L 713.53 517.84 L 708.16 524.94 L 705.77 534.09 L 700.16 541.94 L 697.77 549.77 L 693.08 555.25 L 689.81 565.03 L 685.09 568.16 L 682.34 576.03 L 676.33 583.14 L 673.77 589.19 L 668.66 592.36 L 666.53 597.28 L 661.47 601.58 L 659.06 606.84 L 632.64 635.34 L 615.58 648.47 L 611.61 653.30 L 606.58 655.47 L 602.38 660.53 L 596.69 663.33 L 592.61 669.30 L 586.00 672.23 L 580.75 676.92 L 573.58 679.47 L 570.30 684.67 L 560.12 687.19 L 555.56 692.30 L 546.94 695.16 L 539.28 700.67 L 530.06 703.09 L 522.06 708.77 L 511.75 710.33 L 503.25 715.81 L 486.22 719.09 L 476.16 724.67 L 456.12 727.16 L 441.83 732.77 L 394.06 734.00 L 338.31 732.77 L 321.78 727.16 L 297.12 723.84 L 285.88 718.16 L 269.33 715.86 L 258.23 709.33 L 247.97 707.69 L 242.09 702.23 L 231.58 700.30 L 227.03 695.19 L 216.72 692.53 L 211.06 686.38 L 204.91 684.77 L 200.77 681.05 L 190.94 676.84 L 187.22 671.31 L 181.25 668.92 L 176.00 664.23 L 168.58 660.53 L 165.44 655.44 L 158.66 651.64 L 155.88 646.88 L 150.56 644.56 L 148.30 640.34 L 142.31 636.31 L 139.44 631.44 L 134.44 629.44 L 131.56 623.56 L 128.05 622.02 L 124.12 616.12 L 118.47 612.42 L 116.44 607.44 L 111.33 605.31 L 108.53 599.62 L 102.28 594.12 L 98.77 587.00 L 94.47 582.00 L 92.69 576.78 L 87.23 573.19 L 83.77 563.23 L 79.23 557.77 L 74.77 547.81 L 72.16 546.06 L 69.91 536.56 L 64.09 529.44 L 61.81 519.12 L 55.33 510.22 L 53.77 498.91 L 51.67 494.69 L 48.47 492.38 L 47.33 489.20 L 45.77 474.05 L 39.33 459.03 L 37.91 433.00 L 33.09 408.53 L 32.33 357.33 L 37.84 332.59 L 39.33 308.94 L 45.77 295.00 L 47.33 279.81 L 53.67 269.25 L 55.47 256.62 L 61.77 247.09 L 63.33 237.75 L 68.84 232.06 L 72.09 220.06 L 76.86 215.91 L 79.23 208.23 L 84.77 201.14 L 86.47 194.81 L 92.77 190.19 L 94.23 184.91 L 98.81 178.95 L 102.66 170.38 L 108.34 166.64 L 111.36 160.66 L 116.12 157.88 L 118.31 152.78 L 123.30 148.66 L 125.66 144.36 L 149.36 120.66 L 154.84 117.91 L 159.05 113.19 L 163.44 111.56 L 167.39 105.70 L 172.44 103.56 L 176.39 97.70 L 182.77 94.91 L 188.91 89.56 L 195.84 86.91 L 200.03 81.28 L 209.06 77.84 L 213.91 73.23 L 219.81 71.72 L 226.56 66.09 L 235.77 63.91 L 242.42 58.28 L 251.25 56.67 L 262.83 49.33 L 275.97 47.84 L 286.34 42.31 L 306.78 39.84 L 323.28 34.23 Z M 368.56 43.44 L 349.36 47.98 L 323.05 47.33 L 312.03 50.16 L 305.09 54.67 L 289.91 55.33 L 285.23 57.09 L 278.72 62.06 L 265.56 63.44 L 257.67 69.86 L 246.80 71.33 L 242.69 73.33 L 239.09 77.53 L 228.14 80.09 L 223.56 85.30 L 214.25 88.08 L 208.75 92.92 L 201.16 96.09 L 198.03 100.81 L 190.03 103.28 L 185.38 108.53 L 178.69 111.33 L 176.12 115.88 L 171.62 118.47 L 166.97 124.02 L 160.69 128.31 L 123.98 166.03 L 120.69 171.31 L 115.98 175.05 L 113.69 180.22 L 109.19 183.97 L 105.77 193.19 L 100.19 196.97 L 97.92 203.75 L 93.08 209.58 L 90.53 218.38 L 85.14 223.09 L 83.67 232.22 L 77.09 239.14 L 75.67 249.20 L 69.28 257.19 L 66.77 270.09 L 61.16 277.12 L 59.38 295.22 L 53.09 307.53 L 52.00 317.69 L 52.91 329.47 L 48.09 342.38 L 45.23 360.47 L 44.00 386.06 L 45.16 411.03 L 47.23 423.09 L 49.33 427.31 L 51.56 428.56 L 52.33 456.89 L 54.16 463.06 L 59.22 470.44 L 61.23 488.05 L 66.22 494.97 L 68.16 506.88 L 74.62 516.25 L 77.28 527.97 L 82.69 533.06 L 85.16 544.06 L 90.38 548.56 L 93.28 557.12 L 98.53 561.67 L 101.33 569.31 L 106.69 572.78 L 109.38 580.06 L 114.67 584.70 L 116.47 590.28 L 121.53 594.58 L 123.66 599.62 L 128.88 602.88 L 132.09 608.84 L 136.69 611.69 L 139.44 616.44 L 143.97 618.98 L 147.56 624.56 L 152.31 627.31 L 155.16 631.91 L 160.44 634.44 L 162.98 638.97 L 168.28 642.31 L 172.38 647.34 L 178.38 649.47 L 182.14 653.91 L 191.19 657.23 L 196.09 663.86 L 201.84 665.47 L 207.23 669.77 L 215.28 672.47 L 219.97 677.81 L 230.52 680.70 L 235.14 685.91 L 246.25 688.33 L 252.09 693.86 L 265.72 697.19 L 273.12 702.81 L 287.16 704.33 L 299.22 710.84 L 320.08 712.33 L 328.22 716.84 L 347.62 719.84 L 387.00 719.00 L 428.75 719.84 L 447.88 716.84 L 456.91 712.33 L 477.05 710.77 L 482.84 707.91 L 485.38 705.09 L 501.00 702.77 L 509.47 697.23 L 520.97 694.84 L 527.06 689.09 L 539.05 686.77 L 545.14 681.09 L 556.06 677.84 L 560.20 672.94 L 566.53 670.38 L 570.81 665.23 L 580.84 661.91 L 584.56 657.62 L 589.88 655.12 L 592.69 650.33 L 598.09 647.67 L 604.91 641.33 L 620.44 630.56 L 622.88 626.12 L 627.88 623.12 L 631.44 617.56 L 635.64 615.34 L 638.70 610.34 L 643.34 606.64 L 645.33 602.14 L 651.67 595.09 L 654.38 589.78 L 661.30 583.61 L 663.28 578.88 L 667.91 573.94 L 669.70 566.53 L 676.38 560.44 L 679.16 552.94 L 683.91 547.94 L 686.28 540.03 L 691.91 533.94 L 694.28 523.19 L 699.81 516.88 L 702.38 504.25 L 707.77 496.09 L 710.28 478.50 L 713.91 472.94 L 716.67 465.14 L 716.16 446.41 L 721.77 437.05 L 724.67 420.19 L 724.91 359.31 L 723.91 339.31 L 720.84 327.03 L 717.33 320.03 L 715.84 297.12 L 712.84 289.94 L 709.33 286.16 L 707.84 271.12 L 705.67 266.69 L 702.09 263.86 L 699.81 251.12 L 694.23 243.14 L 691.77 233.86 L 689.91 230.16 L 686.47 227.19 L 683.77 218.23 L 679.08 212.75 L 675.91 204.16 L 670.66 200.62 L 668.44 193.06 L 663.28 187.05 L 661.30 182.39 L 655.66 178.64 L 652.69 172.78 L 646.62 167.53 L 643.53 161.58 L 638.33 158.31 L 635.12 152.12 L 630.69 149.69 L 627.69 144.69 L 622.56 141.56 L 620.02 137.03 L 614.34 133.30 L 610.64 128.66 L 604.78 125.69 L 601.42 121.47 L 593.58 116.53 L 589.62 110.66 L 584.36 108.34 L 581.84 104.09 L 574.25 100.92 L 569.00 96.23 L 561.25 92.92 L 555.75 88.08 L 544.94 84.84 L 539.27 79.33 L 530.91 77.77 L 523.42 72.08 L 512.00 69.77 L 502.23 63.33 L 490.95 61.77 L 478.08 55.33 L 461.92 54.67 L 454.97 50.16 L 443.81 47.33 L 411.19 46.67 L 396.34 43.16 Z M 375.44 52.56 L 394.28 52.16 L 435.88 57.00 L 451.58 56.23 L 458.27 60.94 L 465.09 63.77 L 483.00 65.47 L 489.91 70.77 L 505.23 73.47 L 510.28 78.95 L 521.81 81.28 L 526.06 85.91 L 538.97 89.16 L 544.28 94.81 L 554.14 97.23 L 557.78 102.69 L 564.75 105.08 L 570.25 109.92 L 578.22 113.31 L 581.58 118.53 L 588.19 121.23 L 590.69 125.67 L 597.19 128.23 L 600.62 132.53 L 606.03 135.36 L 635.34 165.36 L 638.23 172.19 L 643.06 176.16 L 645.66 181.64 L 650.53 185.62 L 652.66 190.62 L 658.53 194.58 L 661.28 201.81 L 666.72 208.42 L 668.47 214.28 L 674.53 219.81 L 676.62 228.25 L 682.53 233.67 L 685.09 244.86 L 690.44 248.44 L 691.67 250.83 L 692.44 261.44 L 698.67 269.84 L 700.16 284.88 L 706.44 295.09 L 708.16 314.78 L 711.16 323.06 L 714.69 326.78 L 715.91 330.16 L 715.00 376.06 L 715.77 433.86 L 709.09 447.22 L 707.16 458.16 L 706.67 471.11 L 700.16 481.03 L 698.67 494.17 L 692.16 504.03 L 690.67 515.20 L 684.38 522.09 L 682.30 532.42 L 676.23 539.00 L 674.69 548.03 L 668.38 553.94 L 666.53 560.00 L 662.08 565.25 L 659.30 571.61 L 652.66 576.38 L 650.72 581.12 L 645.47 585.58 L 643.44 590.25 L 634.31 601.53 L 616.19 618.67 L 607.19 619.23 L 592.52 622.67 L 541.48 623.33 L 513.84 626.09 L 507.33 628.03 L 507.16 629.97 L 508.33 630.77 L 541.12 632.84 L 569.88 632.84 L 593.22 631.09 L 596.69 632.97 L 596.02 636.94 L 591.05 639.98 L 586.61 645.30 L 581.58 647.47 L 577.97 653.02 L 569.81 657.23 L 566.52 661.30 L 559.03 663.28 L 553.52 669.30 L 544.61 671.33 L 536.72 677.34 L 526.14 680.09 L 521.23 685.30 L 510.83 686.33 L 500.17 693.67 L 486.28 695.19 L 476.95 701.77 L 468.88 701.00 L 462.31 702.16 L 452.03 705.16 L 446.00 708.77 L 439.16 709.91 L 422.91 709.02 L 383.38 711.00 L 349.69 709.00 L 331.91 709.67 L 318.62 703.09 L 297.56 701.56 L 289.09 695.23 L 275.81 693.67 L 265.97 687.16 L 254.80 685.67 L 247.25 679.33 L 237.81 677.53 L 232.88 672.19 L 221.62 669.53 L 217.66 663.70 L 211.88 660.88 L 211.31 657.88 L 217.94 656.31 L 279.38 654.91 L 299.81 652.77 L 310.06 649.16 L 334.06 649.91 L 346.28 647.02 L 378.92 647.77 L 400.31 644.09 L 412.47 644.91 L 420.22 641.33 L 453.59 640.77 L 492.31 637.84 L 496.62 636.34 L 497.84 633.19 L 491.41 631.34 L 488.34 626.36 L 485.09 624.33 L 464.69 625.09 L 459.06 626.31 L 454.88 628.84 L 443.66 630.84 L 428.92 630.67 L 419.69 625.00 L 411.66 628.95 L 410.23 628.09 L 407.69 617.88 L 405.86 615.23 L 403.97 615.02 L 401.16 618.03 L 396.67 636.31 L 385.02 638.67 L 364.98 638.67 L 360.81 637.53 L 357.84 634.09 L 354.17 632.33 L 346.30 632.05 L 342.06 633.09 L 336.20 636.86 L 289.73 646.67 L 246.95 646.02 L 212.16 648.16 L 199.31 651.00 L 185.62 645.53 L 181.42 640.47 L 174.69 636.69 L 171.31 631.33 L 166.56 629.56 L 163.69 624.69 L 158.12 621.12 L 156.02 617.05 L 149.88 612.88 L 146.97 607.98 L 142.44 605.44 L 139.91 600.16 L 134.75 596.75 L 132.12 592.12 L 125.98 587.97 L 123.34 583.36 L 117.38 578.06 L 115.53 571.81 L 110.47 567.38 L 107.77 559.81 L 102.33 556.27 L 99.91 545.06 L 94.47 541.28 L 91.91 530.14 L 86.47 524.81 L 84.62 514.09 L 79.23 509.09 L 76.81 495.12 L 70.70 488.09 L 69.67 474.88 L 62.33 460.06 L 60.91 438.53 L 54.33 414.73 L 54.33 346.09 L 58.84 335.69 L 61.77 319.48 L 62.47 306.03 L 68.91 293.78 L 71.08 278.58 L 76.77 271.09 L 78.47 257.00 L 83.91 251.94 L 86.09 240.06 L 90.95 236.77 L 94.19 225.12 L 99.86 219.91 L 102.14 211.09 L 108.53 205.28 L 110.23 200.23 L 115.77 193.14 L 118.33 185.69 L 122.97 183.02 L 126.44 176.56 L 132.02 172.95 L 134.44 167.56 L 139.53 164.38 L 141.44 159.56 L 145.88 157.12 L 149.31 151.69 L 154.53 148.42 L 157.12 143.88 L 161.64 141.34 L 173.72 129.31 L 179.44 126.56 L 182.36 121.66 L 188.44 118.56 L 191.78 113.31 L 199.75 109.92 L 205.25 105.08 L 210.56 103.30 L 216.84 96.62 L 225.28 94.53 L 230.58 88.70 L 242.03 85.81 L 246.67 80.70 L 257.67 78.86 L 263.38 73.09 L 276.97 70.84 L 281.42 68.53 L 285.28 64.19 L 294.41 64.95 L 305.88 62.84 L 316.31 56.16 L 333.91 56.91 Z M 495.69 107.31 L 487.69 111.33 L 485.30 115.66 L 479.28 120.88 L 476.92 126.75 L 471.23 133.86 L 469.77 141.05 L 465.16 149.03 L 464.16 153.62 L 464.16 169.38 L 465.19 173.03 L 468.77 175.81 L 471.31 182.12 L 476.88 188.83 L 483.38 192.47 L 486.16 195.91 L 494.12 200.12 L 496.77 208.28 L 496.00 225.06 L 496.95 233.88 L 492.91 265.31 L 484.88 284.12 L 482.88 285.00 L 480.88 283.88 L 474.19 272.78 L 474.47 264.95 L 477.67 262.31 L 479.67 258.11 L 480.98 237.61 L 479.02 227.38 L 479.77 215.14 L 471.31 198.31 L 458.97 190.16 L 448.78 188.67 L 437.44 183.44 L 405.31 182.00 L 401.47 185.38 L 399.23 200.84 L 398.00 225.31 L 399.23 236.81 L 400.62 242.25 L 406.34 247.38 L 408.66 252.64 L 416.58 260.53 L 420.88 262.88 L 423.33 267.31 L 425.91 268.77 L 430.88 270.00 L 434.67 269.14 L 438.81 273.77 L 445.95 276.67 L 463.39 277.23 L 469.67 279.73 L 474.00 309.06 L 470.77 335.77 L 469.14 339.77 L 467.12 339.81 L 465.19 338.03 L 461.84 327.94 L 457.23 324.19 L 454.69 317.69 L 448.38 314.34 L 444.33 309.70 L 433.69 307.67 L 429.91 296.14 L 426.42 294.05 L 409.81 298.77 L 401.22 299.62 L 396.31 304.67 L 392.33 306.69 L 389.77 316.05 L 385.23 325.00 L 382.53 344.09 L 377.28 347.62 L 373.53 358.42 L 371.38 359.97 L 369.44 359.44 L 370.23 348.91 L 371.56 346.44 L 374.84 344.81 L 375.77 341.86 L 375.77 334.14 L 374.84 332.09 L 369.23 329.19 L 366.69 320.88 L 361.98 316.92 L 361.05 313.27 L 363.34 309.70 L 376.34 299.62 L 378.47 291.72 L 383.91 285.78 L 384.91 257.59 L 382.81 241.44 L 380.06 237.16 L 374.78 235.16 L 370.95 235.23 L 367.69 237.31 L 364.34 242.64 L 354.33 251.69 L 351.53 258.38 L 346.14 263.33 L 343.91 284.47 L 341.62 288.91 L 338.91 288.77 L 338.23 287.58 L 336.84 261.06 L 335.00 250.31 L 335.88 248.12 L 345.41 239.75 L 352.31 236.67 L 355.12 231.88 L 368.88 221.12 L 375.91 210.94 L 376.98 204.75 L 376.00 190.62 L 376.77 163.75 L 375.53 159.62 L 370.33 156.31 L 366.81 147.97 L 362.19 144.03 L 359.53 136.62 L 354.70 132.61 L 352.12 127.12 L 346.98 123.94 L 344.34 117.36 L 340.36 115.02 L 332.05 116.23 L 328.16 118.09 L 323.30 124.69 L 307.66 137.36 L 298.14 148.19 L 295.34 154.62 L 290.31 158.86 L 288.67 171.16 L 286.72 175.12 L 280.14 179.77 L 277.38 179.34 L 274.12 174.12 L 268.47 170.42 L 265.88 165.88 L 261.44 163.44 L 258.84 158.09 L 255.05 157.02 L 250.12 157.88 L 248.23 161.00 L 247.67 166.25 L 243.09 174.38 L 242.00 185.44 L 242.95 199.41 L 239.97 203.72 L 237.70 203.67 L 235.12 199.12 L 231.53 197.23 L 193.92 197.33 L 189.23 199.09 L 182.34 204.72 L 173.72 206.47 L 169.38 211.53 L 163.72 214.31 L 159.22 219.69 L 152.23 222.23 L 147.16 226.53 L 139.23 230.05 L 140.09 237.84 L 145.31 240.33 L 147.94 244.89 L 152.67 248.69 L 155.31 254.22 L 162.72 263.19 L 164.23 267.19 L 169.34 270.36 L 172.16 275.91 L 180.03 279.19 L 186.91 284.77 L 194.00 286.47 L 202.56 292.56 L 227.56 292.91 L 233.91 291.86 L 238.12 285.88 L 248.86 283.91 L 252.58 278.47 L 257.44 276.56 L 260.33 270.69 L 265.91 266.86 L 267.98 257.12 L 270.00 255.47 L 273.38 255.02 L 283.00 260.77 L 294.58 262.66 L 297.47 268.42 L 303.12 272.12 L 309.53 280.84 L 309.91 282.78 L 307.84 288.06 L 300.64 295.34 L 293.95 298.67 L 270.89 299.23 L 266.16 301.09 L 261.69 306.22 L 257.56 308.44 L 255.53 312.42 L 251.09 316.14 L 249.53 333.72 L 247.38 335.97 L 245.56 335.56 L 241.06 330.38 L 235.44 328.44 L 233.91 317.06 L 229.33 314.31 L 226.44 308.44 L 222.25 307.00 L 217.23 308.23 L 212.23 313.00 L 208.81 321.72 L 204.16 328.03 L 202.02 335.64 L 202.69 346.47 L 199.69 349.00 L 192.03 346.72 L 189.28 343.66 L 190.98 333.97 L 189.23 328.58 L 188.77 315.42 L 186.86 308.09 L 169.72 292.19 L 158.80 290.67 L 151.77 287.23 L 141.83 287.33 L 133.88 290.31 L 122.16 299.09 L 119.34 303.64 L 115.47 306.62 L 114.33 309.92 L 113.05 332.41 L 116.28 346.12 L 121.34 350.36 L 124.69 355.69 L 128.95 357.98 L 133.72 363.53 L 145.20 365.33 L 153.61 369.70 L 155.95 373.27 L 154.88 377.12 L 147.38 379.94 L 132.47 394.62 L 129.81 402.03 L 125.16 407.03 L 122.94 415.73 L 117.02 421.97 L 118.69 425.69 L 123.00 427.67 L 143.25 428.23 L 152.06 430.00 L 159.12 428.00 L 162.84 430.03 L 160.56 439.44 L 156.47 441.62 L 149.16 448.94 L 140.23 472.95 L 138.09 486.62 L 139.66 490.62 L 143.97 493.81 L 156.44 497.84 L 176.94 497.00 L 191.31 497.84 L 195.61 496.30 L 200.14 491.09 L 210.06 488.84 L 212.56 483.44 L 216.09 483.23 L 217.95 489.11 L 215.09 494.38 L 214.00 500.38 L 217.81 508.45 L 217.09 521.84 L 219.33 529.31 L 223.88 531.88 L 226.88 536.88 L 232.34 540.38 L 234.44 545.44 L 237.05 546.77 L 268.22 544.84 L 280.64 537.34 L 284.33 530.69 L 289.06 526.70 L 290.98 518.38 L 290.09 509.31 L 291.97 506.31 L 294.81 506.28 L 300.83 510.16 L 311.56 521.56 L 315.78 523.67 L 324.94 522.91 L 327.84 517.97 L 329.91 506.47 L 328.84 472.12 L 326.88 468.88 L 320.69 465.53 L 315.19 459.23 L 310.86 457.23 L 303.28 456.53 L 300.28 453.97 L 299.00 448.81 L 300.16 442.12 L 301.66 438.66 L 306.50 433.64 L 310.05 432.03 L 315.00 434.77 L 320.00 435.23 L 325.88 440.69 L 333.12 443.28 L 336.88 448.88 L 342.31 452.31 L 345.31 457.31 L 350.44 460.44 L 352.94 464.89 L 359.30 470.39 L 362.19 478.88 L 365.84 481.94 L 368.23 491.09 L 374.38 501.50 L 378.16 530.78 L 384.00 541.75 L 383.02 549.91 L 383.98 567.22 L 383.44 597.38 L 377.09 607.06 L 374.77 614.77 L 369.67 621.31 L 360.23 625.81 L 359.00 629.12 L 360.33 631.77 L 369.06 630.84 L 382.69 620.22 L 386.23 608.95 L 389.81 602.72 L 392.91 584.84 L 392.05 567.00 L 393.84 558.03 L 393.84 547.97 L 391.77 538.91 L 385.23 528.12 L 385.98 511.92 L 384.84 503.22 L 382.92 498.25 L 378.47 492.38 L 376.38 481.66 L 371.16 477.06 L 367.67 467.69 L 362.69 465.67 L 361.02 462.03 L 361.70 459.44 L 364.56 457.14 L 369.67 458.14 L 374.36 460.98 L 380.22 458.69 L 382.91 454.62 L 381.53 450.05 L 374.03 452.98 L 368.78 450.69 L 360.00 439.25 L 360.70 436.48 L 368.77 424.77 L 368.05 404.00 L 370.33 383.80 L 376.67 381.31 L 378.23 374.95 L 380.38 371.66 L 383.14 371.23 L 383.95 373.58 L 379.19 386.44 L 375.02 403.94 L 375.23 409.81 L 379.23 427.09 L 382.53 427.81 L 383.67 425.14 L 384.23 413.33 L 387.23 401.86 L 390.88 401.16 L 391.84 403.44 L 391.84 417.56 L 389.02 439.38 L 393.67 450.84 L 393.91 460.38 L 390.84 472.06 L 385.06 477.59 L 387.12 482.12 L 394.27 482.86 L 398.72 480.12 L 399.91 475.91 L 399.00 461.88 L 400.14 458.33 L 408.69 450.47 L 414.34 447.61 L 417.31 438.78 L 422.64 435.34 L 424.56 432.44 L 425.44 422.56 L 431.23 422.47 L 436.86 427.80 L 435.69 432.31 L 428.66 439.30 L 424.16 441.94 L 421.84 450.06 L 418.16 452.09 L 417.16 454.03 L 414.69 467.03 L 410.16 472.12 L 408.23 484.62 L 408.23 540.38 L 411.16 558.88 L 412.16 560.91 L 416.12 563.12 L 416.91 565.31 L 416.00 573.25 L 416.95 579.11 L 415.00 588.31 L 416.33 595.27 L 422.53 601.81 L 425.28 610.12 L 432.06 616.11 L 434.88 620.88 L 444.12 624.00 L 449.61 622.34 L 450.91 619.31 L 439.36 614.34 L 433.19 608.03 L 430.53 600.58 L 425.44 597.44 L 422.77 571.19 L 416.09 555.06 L 417.00 522.19 L 416.00 502.19 L 417.33 475.05 L 423.67 465.25 L 425.47 455.67 L 431.38 450.53 L 433.98 445.05 L 439.56 441.44 L 441.56 437.44 L 445.56 437.19 L 454.06 445.11 L 457.16 449.91 L 461.12 451.31 L 462.91 453.38 L 462.44 455.56 L 456.58 458.47 L 453.34 463.64 L 449.31 466.69 L 448.03 472.06 L 449.39 475.34 L 454.95 477.19 L 458.62 480.78 L 465.31 497.12 L 469.77 499.86 L 467.53 510.33 L 461.62 512.91 L 458.12 512.12 L 453.67 497.70 L 447.33 495.28 L 444.69 484.19 L 443.47 484.47 L 443.03 487.28 L 443.44 494.44 L 447.77 496.23 L 447.00 508.12 L 448.06 511.41 L 453.77 516.81 L 458.58 527.53 L 465.12 529.95 L 470.53 528.42 L 473.28 521.19 L 478.91 514.44 L 480.00 508.50 L 479.05 501.42 L 481.69 500.00 L 493.12 509.12 L 501.11 520.06 L 508.30 523.33 L 511.95 527.69 L 520.44 529.00 L 532.62 527.91 L 539.75 523.33 L 550.75 520.92 L 558.69 514.03 L 560.47 502.28 L 564.84 494.97 L 567.00 486.12 L 564.77 477.86 L 560.19 471.25 L 561.12 466.88 L 572.44 466.47 L 579.03 472.72 L 587.50 474.84 L 600.59 473.84 L 605.33 472.53 L 610.62 467.47 L 613.98 466.33 L 632.28 465.84 L 636.19 464.77 L 637.98 459.05 L 636.91 450.53 L 630.33 441.14 L 629.56 428.56 L 622.47 421.28 L 619.53 413.58 L 614.11 410.06 L 610.06 405.16 L 604.00 402.23 L 598.75 401.67 L 591.14 396.23 L 585.91 395.09 L 573.89 395.33 L 569.58 397.47 L 565.94 401.69 L 557.91 403.23 L 548.20 408.67 L 537.64 409.98 L 527.00 404.23 L 508.09 400.86 L 505.28 397.19 L 505.88 390.12 L 517.05 387.77 L 525.78 381.33 L 535.97 379.84 L 552.95 372.23 L 563.16 372.91 L 573.97 369.84 L 579.11 364.98 L 583.38 364.00 L 587.53 365.62 L 590.11 373.78 L 596.34 380.66 L 599.88 386.69 L 609.42 389.08 L 615.00 393.53 L 618.92 394.67 L 634.48 394.77 L 639.09 393.77 L 645.09 389.38 L 653.31 386.67 L 661.30 378.61 L 664.16 371.94 L 667.34 369.62 L 668.67 366.19 L 669.84 351.31 L 664.23 341.00 L 661.67 327.75 L 658.28 323.47 L 647.62 317.09 L 634.12 315.05 L 618.00 315.33 L 611.88 317.28 L 606.62 322.91 L 602.64 323.98 L 599.23 322.05 L 599.66 317.41 L 603.62 315.34 L 605.67 312.25 L 606.98 303.30 L 605.02 291.38 L 605.67 273.88 L 602.95 268.98 L 597.44 266.44 L 597.16 264.03 L 602.64 260.34 L 607.56 254.62 L 612.44 252.56 L 615.56 246.44 L 627.88 244.81 L 631.00 240.12 L 628.72 230.88 L 623.66 226.64 L 620.30 220.34 L 606.89 206.94 L 600.81 203.77 L 596.84 198.94 L 592.78 197.09 L 580.33 199.06 L 580.33 202.94 L 593.14 206.23 L 598.81 211.77 L 604.42 214.47 L 605.81 216.44 L 605.81 219.56 L 602.91 221.69 L 588.91 222.33 L 585.62 223.47 L 581.22 227.67 L 570.95 228.97 L 568.88 227.88 L 568.00 225.69 L 570.84 218.69 L 570.02 214.08 L 562.86 216.23 L 554.16 221.91 L 546.34 220.72 L 543.28 217.97 L 543.44 215.56 L 548.75 212.25 L 552.67 206.47 L 564.86 204.77 L 569.53 202.33 L 569.84 199.28 L 568.09 198.33 L 554.97 198.38 L 551.25 199.75 L 548.31 203.67 L 542.36 206.66 L 539.67 211.31 L 531.84 219.02 L 521.56 220.44 L 515.00 226.77 L 511.08 226.91 L 508.66 225.61 L 506.09 213.31 L 506.47 208.77 L 511.31 200.69 L 517.38 197.53 L 526.30 188.66 L 533.44 176.53 L 533.84 166.06 L 532.00 158.62 L 534.72 150.94 L 534.77 138.47 L 533.30 135.34 L 529.23 132.19 L 526.56 126.56 L 522.12 124.12 L 518.42 118.47 L 513.12 116.12 L 510.31 111.33 L 499.39 106.09 Z M 240.31 529.00 L 247.88 530.88 L 249.00 533.31 L 248.12 535.88 L 245.64 536.98 L 237.56 534.56 L 237.31 530.97 Z M 544.44 500.56 L 548.77 500.91 L 548.84 503.88 L 546.97 506.84 L 544.33 506.25 Z M 316.44 487.56 L 319.56 487.56 L 320.95 493.59 L 320.00 501.31 L 320.91 506.62 L 319.67 510.30 L 318.03 510.98 L 314.31 509.22 L 311.00 501.69 L 313.86 496.67 Z M 300.44 487.56 L 303.44 487.44 L 303.56 490.44 L 300.56 490.56 Z M 157.44 483.56 L 163.95 483.23 L 164.91 485.62 L 162.84 487.69 L 158.00 487.77 Z M 473.44 481.56 L 475.88 481.19 L 477.69 483.44 L 479.00 495.50 L 477.91 500.77 L 470.23 499.95 L 470.16 494.41 Z M 314.44 475.56 L 317.05 475.03 L 319.34 476.44 L 319.28 483.67 L 315.23 483.14 Z M 247.62 475.00 L 270.05 476.47 L 274.12 482.12 L 280.30 486.67 L 281.23 494.86 L 283.84 501.69 L 283.77 509.81 L 281.23 516.14 L 280.02 524.86 L 271.25 530.67 L 266.31 530.84 L 260.78 528.69 L 255.91 520.16 L 247.62 514.09 L 243.78 515.31 L 240.03 519.69 L 236.97 519.69 L 226.16 507.97 L 224.09 494.84 L 228.47 483.62 L 232.95 481.02 L 237.36 475.98 Z M 457.44 469.56 L 460.67 469.72 L 460.30 473.67 L 457.33 473.28 Z M 308.44 468.56 L 311.67 468.72 L 311.30 472.67 L 308.33 472.28 Z M 190.88 465.00 L 193.69 466.69 L 195.67 469.84 L 197.00 483.75 L 195.69 487.31 L 192.72 488.72 L 179.06 490.00 L 173.95 489.53 L 170.36 487.34 L 169.02 483.97 L 170.98 480.03 L 181.84 473.91 L 185.12 468.88 Z M 528.44 458.56 L 537.09 459.06 L 540.75 460.75 L 549.22 469.41 L 551.88 474.88 L 556.67 477.70 L 557.84 484.78 L 556.56 487.44 L 554.14 488.67 L 542.33 489.23 L 538.38 490.66 L 532.30 502.66 L 522.31 508.88 L 523.98 515.64 L 523.02 517.95 L 519.50 519.86 L 514.34 519.69 L 508.84 513.94 L 504.69 511.69 L 496.33 502.19 L 495.00 487.19 L 496.23 473.09 L 498.69 468.31 L 504.12 465.72 L 509.91 460.23 Z M 205.44 454.56 L 211.95 454.23 L 212.91 456.31 L 210.77 474.91 L 209.53 479.33 L 207.12 481.00 L 202.88 478.88 L 202.09 475.75 L 203.09 462.69 Z M 356.88 450.00 L 360.67 451.73 L 360.27 456.67 L 356.44 456.81 L 354.31 455.03 L 354.31 451.97 Z M 285.88 449.00 L 288.34 450.48 L 289.00 454.94 L 288.00 465.38 L 288.91 478.00 L 288.44 479.56 L 286.69 480.00 L 284.44 479.44 L 280.61 473.70 L 275.44 471.44 L 275.02 468.06 L 276.08 460.25 L 282.70 451.34 Z M 468.31 444.00 L 470.94 444.98 L 473.23 447.95 L 485.53 453.67 L 487.98 462.70 L 484.28 473.67 L 481.61 473.91 L 479.66 472.61 L 477.72 466.03 L 469.67 451.70 L 465.33 449.28 L 465.47 445.67 Z M 345.44 442.56 L 350.92 442.98 L 352.86 445.56 L 352.56 448.44 L 346.56 448.56 L 345.09 445.62 Z M 186.50 435.00 L 200.88 435.88 L 201.98 438.36 L 200.34 441.64 L 197.69 443.00 L 189.41 442.16 L 184.81 444.23 L 184.09 448.47 L 186.00 453.12 L 184.31 455.69 L 168.38 460.66 L 166.53 469.72 L 163.91 472.86 L 159.94 473.95 L 152.56 473.56 L 152.09 470.61 L 154.84 465.97 L 157.98 454.05 L 167.34 444.70 L 171.91 441.84 L 175.12 435.88 Z M 339.44 434.56 L 341.58 434.05 L 344.56 435.56 L 344.44 441.56 L 340.08 441.91 L 337.66 440.59 L 337.23 435.95 Z M 578.88 421.00 L 580.95 422.42 L 580.00 428.94 L 581.09 433.94 L 587.53 438.62 L 592.06 447.67 L 595.62 447.84 L 599.09 444.14 L 604.78 443.16 L 611.27 447.94 L 619.42 451.47 L 620.97 453.62 L 620.34 455.62 L 605.89 463.69 L 593.19 465.00 L 577.44 464.44 L 577.23 460.91 L 579.77 459.19 L 580.98 455.38 L 579.95 450.23 L 577.88 449.16 L 575.05 449.33 L 572.56 457.34 L 567.92 457.95 L 564.69 456.69 L 559.19 451.03 L 555.91 442.16 L 550.56 440.56 L 550.16 438.03 L 555.78 429.31 L 558.91 428.06 L 562.91 428.47 L 565.95 431.94 L 565.00 437.25 L 566.23 442.14 L 569.06 446.02 L 572.30 446.81 L 573.95 440.64 L 573.31 429.25 L 576.47 422.62 Z M 331.44 421.56 L 333.58 421.05 L 334.77 422.05 L 333.81 430.03 L 328.09 433.77 L 324.72 433.67 L 324.47 429.67 L 330.12 426.88 Z M 280.44 420.56 L 292.88 420.88 L 295.77 425.95 L 295.69 429.94 L 292.09 432.77 L 285.88 434.31 L 279.22 440.62 L 274.09 443.16 L 271.30 452.52 L 265.70 457.39 L 262.88 463.12 L 236.61 466.05 L 224.38 477.53 L 220.88 476.88 L 220.23 463.38 L 224.00 454.69 L 221.05 446.66 L 225.12 436.88 L 239.88 433.84 L 248.88 428.62 L 264.08 427.67 L 272.03 422.16 Z M 315.44 419.56 L 318.67 419.72 L 318.12 423.88 L 309.56 425.56 L 309.88 422.12 Z M 346.44 417.56 L 348.62 417.09 L 350.53 418.81 L 350.09 425.77 L 346.33 425.22 Z M 562.88 412.00 L 565.34 413.38 L 565.91 415.78 L 561.22 417.91 L 560.09 414.61 Z M 483.44 411.56 L 521.55 412.08 L 532.19 414.19 L 541.03 421.17 L 545.09 437.86 L 546.97 439.69 L 550.56 440.56 L 550.56 454.44 L 546.42 455.95 L 540.17 450.33 L 527.38 449.09 L 518.88 449.16 L 505.12 452.00 L 498.59 450.81 L 491.88 447.72 L 488.06 443.16 L 476.94 439.84 L 472.67 435.14 L 457.70 431.67 L 457.33 427.72 L 463.58 421.47 L 470.81 418.72 L 478.73 412.33 Z M 570.88 403.00 L 578.00 404.23 L 584.59 407.95 L 594.30 405.33 L 597.16 409.91 L 605.42 413.47 L 619.12 427.12 L 619.98 430.70 L 618.77 434.19 L 614.86 435.77 L 608.83 435.95 L 592.81 432.77 L 592.33 427.73 L 600.31 424.67 L 600.56 420.56 L 597.86 419.23 L 591.83 419.05 L 583.62 421.91 L 580.72 421.67 L 580.00 411.44 L 571.38 410.53 L 568.47 408.19 L 568.31 404.97 Z M 449.44 403.56 L 453.67 403.77 L 453.14 410.77 L 451.12 410.81 L 449.47 409.23 Z M 181.44 402.56 L 183.38 402.03 L 185.12 403.12 L 185.72 407.66 L 176.17 416.67 L 165.83 417.33 L 157.75 422.00 L 149.86 419.77 L 144.09 415.62 L 145.41 412.66 L 153.53 410.77 L 159.58 406.08 L 167.12 409.00 L 172.28 405.19 Z M 442.44 396.56 L 445.88 396.88 L 446.56 400.44 L 442.56 400.56 Z M 210.44 387.56 L 217.00 387.09 L 230.44 389.38 L 239.03 395.84 L 250.67 398.14 L 260.95 403.77 L 270.84 405.31 L 272.92 408.42 L 264.88 415.81 L 242.94 419.19 L 239.81 425.02 L 227.56 426.44 L 221.28 432.69 L 211.28 432.77 L 202.78 428.09 L 188.03 425.84 L 185.23 424.09 L 185.47 420.67 L 192.84 415.91 L 194.81 413.03 L 198.06 405.27 L 201.81 400.72 L 204.33 389.69 Z M 449.44 381.56 L 452.88 381.88 L 453.56 385.44 L 450.12 385.12 Z M 159.44 380.56 L 181.67 380.23 L 182.91 381.38 L 182.56 384.44 L 179.12 385.88 L 175.78 390.84 L 165.91 388.23 L 162.12 392.72 L 154.16 396.09 L 151.19 400.77 L 144.81 404.72 L 141.56 404.56 L 141.88 396.12 L 145.95 394.02 L 150.72 388.47 L 155.66 386.30 Z M 391.44 370.56 L 395.11 370.05 L 398.06 371.16 L 401.81 378.77 L 410.97 381.16 L 418.12 384.84 L 421.09 384.77 L 427.88 380.00 L 438.09 381.47 L 439.91 384.08 L 438.69 391.12 L 433.36 394.66 L 431.23 397.95 L 431.67 407.27 L 425.23 409.81 L 423.23 414.05 L 422.34 420.56 L 416.94 425.16 L 414.30 432.56 L 409.66 436.36 L 407.30 441.61 L 404.12 444.00 L 400.98 441.97 L 399.05 438.58 L 400.84 425.84 L 400.77 413.42 L 398.67 402.73 L 392.19 393.78 L 392.98 381.94 L 391.09 374.47 Z M 282.44 366.56 L 286.28 366.33 L 286.67 369.30 L 282.72 369.67 Z M 275.44 365.56 L 281.25 365.33 L 281.84 367.97 L 275.75 368.67 Z M 387.44 358.56 L 390.30 358.33 L 391.67 361.80 L 391.91 368.84 L 390.91 370.77 L 384.50 370.84 L 383.09 369.78 Z M 185.06 356.00 L 191.97 357.28 L 196.78 362.69 L 204.06 365.16 L 207.88 369.72 L 214.38 372.47 L 215.91 374.84 L 215.56 378.44 L 199.42 378.95 L 182.91 372.23 L 165.56 369.56 L 165.70 366.33 L 175.86 362.91 L 180.80 357.31 Z M 474.44 348.56 L 477.67 348.72 L 477.30 352.67 L 474.33 352.28 Z M 365.31 332.00 L 367.56 332.56 L 367.97 336.39 L 367.12 338.88 L 364.88 340.00 L 362.66 338.59 L 362.00 335.75 L 362.88 333.12 Z M 332.31 330.00 L 350.31 333.31 L 353.88 339.88 L 359.84 342.94 L 362.28 356.12 L 368.91 360.69 L 368.00 366.88 L 368.72 378.56 L 367.69 381.31 L 365.12 383.00 L 362.19 381.03 L 359.12 373.12 L 354.12 370.12 L 350.42 364.47 L 342.09 359.47 L 337.95 359.23 L 330.97 362.19 L 329.19 364.12 L 328.02 369.03 L 330.16 373.91 L 343.44 375.44 L 351.58 383.53 L 358.27 385.33 L 359.77 388.00 L 363.00 406.12 L 357.69 411.00 L 355.56 410.56 L 354.33 408.19 L 353.67 398.81 L 348.86 388.66 L 340.69 388.16 L 337.23 389.86 L 337.70 392.61 L 343.67 398.80 L 345.09 411.47 L 346.98 415.64 L 346.23 417.67 L 341.92 417.95 L 338.69 416.69 L 335.69 404.78 L 328.33 402.25 L 328.09 397.69 L 329.98 390.64 L 326.97 383.16 L 325.19 383.16 L 323.09 386.38 L 322.09 396.75 L 323.36 400.34 L 328.67 402.77 L 329.91 414.69 L 328.14 417.53 L 322.00 417.91 L 320.44 417.44 L 315.81 411.28 L 304.03 408.84 L 301.22 405.31 L 296.16 403.33 L 284.84 402.67 L 275.14 395.23 L 263.91 392.77 L 256.94 388.09 L 245.97 383.81 L 241.66 378.70 L 237.09 375.94 L 236.00 371.38 L 237.09 366.06 L 241.91 362.84 L 244.16 356.94 L 246.12 356.00 L 247.67 356.73 L 249.98 364.95 L 258.34 373.30 L 267.28 379.81 L 280.42 380.98 L 303.72 379.02 L 321.72 361.97 L 323.23 355.91 L 326.67 352.30 L 327.84 348.78 L 329.09 332.38 Z M 214.88 330.00 L 216.84 331.31 L 217.95 343.77 L 217.02 347.83 L 213.88 350.00 L 211.33 347.22 L 211.05 341.59 L 212.47 331.86 Z M 231.88 329.00 L 233.77 330.42 L 233.77 343.58 L 232.56 347.44 L 229.66 347.95 L 227.23 344.91 L 227.09 339.00 L 228.47 332.00 Z M 624.25 325.00 L 637.84 325.47 L 642.53 327.72 L 642.81 329.72 L 639.19 334.75 L 639.16 337.78 L 645.56 344.56 L 646.33 361.08 L 650.44 363.44 L 651.84 366.41 L 651.84 371.59 L 650.12 376.88 L 642.81 380.23 L 638.34 385.38 L 633.31 386.84 L 617.19 385.53 L 612.22 380.31 L 606.58 377.53 L 604.22 367.06 L 599.05 359.34 L 599.98 350.61 L 598.33 335.70 L 605.31 332.53 L 611.12 325.88 Z M 588.44 325.56 L 595.88 325.88 L 597.77 329.00 L 597.98 332.38 L 597.44 334.56 L 593.09 336.14 L 590.28 339.03 L 587.53 353.42 L 579.23 357.09 L 571.41 362.72 L 565.59 362.84 L 559.12 361.12 L 558.05 357.66 L 560.19 352.12 L 565.67 348.31 L 568.62 341.47 L 575.88 334.28 L 585.42 330.53 Z M 530.31 325.00 L 533.12 326.12 L 533.98 329.03 L 532.69 333.12 L 529.31 337.69 L 522.61 338.98 L 517.44 337.44 L 518.12 333.88 L 526.19 330.77 L 527.66 326.39 Z M 499.31 325.00 L 501.67 325.70 L 501.69 328.12 L 499.72 329.81 L 496.72 329.67 L 496.31 326.88 Z M 520.44 318.56 L 523.44 318.44 L 523.56 321.44 L 520.56 321.56 Z M 221.44 318.56 L 224.67 318.72 L 224.30 322.67 L 221.33 322.28 Z M 420.88 313.00 L 426.33 314.77 L 443.09 316.47 L 445.72 318.88 L 448.16 323.91 L 454.12 327.12 L 454.81 330.16 L 454.56 343.44 L 445.77 357.19 L 442.94 357.95 L 435.94 355.00 L 429.58 356.47 L 428.09 359.78 L 432.97 367.38 L 427.05 371.97 L 414.22 369.84 L 403.97 365.81 L 399.67 357.69 L 393.81 354.77 L 393.09 353.00 L 394.16 336.78 L 395.31 333.78 L 399.53 330.42 L 402.28 324.88 L 407.58 319.47 Z M 272.44 309.56 L 291.28 309.16 L 301.12 311.31 L 304.56 316.56 L 310.67 319.70 L 315.08 330.75 L 319.77 336.23 L 321.00 342.06 L 319.89 347.78 L 313.33 355.14 L 311.12 360.88 L 305.16 364.09 L 301.97 367.72 L 299.70 367.67 L 293.64 361.59 L 289.56 353.66 L 284.36 353.05 L 279.69 354.84 L 275.94 354.77 L 269.42 350.08 L 259.27 347.94 L 255.62 344.16 L 255.09 339.69 L 259.23 321.91 L 261.36 318.66 L 266.34 315.64 L 269.12 310.88 Z M 134.44 302.56 L 138.44 302.44 L 138.56 306.44 L 134.56 306.56 Z M 162.06 301.00 L 168.22 302.31 L 172.09 307.84 L 175.64 309.66 L 177.67 312.77 L 181.00 328.69 L 176.84 342.97 L 168.75 353.06 L 154.95 357.77 L 149.41 357.84 L 137.91 354.77 L 134.66 352.64 L 127.56 342.78 L 128.16 335.03 L 130.77 333.19 L 134.31 325.69 L 142.06 319.94 L 154.30 307.66 L 157.69 302.31 Z M 517.19 300.00 L 525.28 301.47 L 526.81 303.12 L 526.69 305.12 L 517.88 310.12 L 508.88 325.12 L 502.86 326.77 L 502.09 319.16 L 504.28 312.03 L 506.72 309.47 L 510.84 307.91 L 513.47 301.58 Z M 321.50 293.00 L 327.19 294.31 L 336.38 303.47 L 338.56 307.56 L 343.67 309.69 L 346.91 317.53 L 345.42 322.53 L 340.81 324.77 L 332.19 325.23 L 326.78 327.91 L 324.44 327.44 L 322.02 316.11 L 316.70 311.66 L 314.44 307.44 L 310.02 304.36 L 317.12 293.88 Z M 529.44 292.56 L 538.00 293.23 L 541.69 296.06 L 541.00 304.94 L 541.98 315.06 L 540.97 318.84 L 538.72 318.53 L 536.47 316.09 L 533.77 303.91 L 529.14 296.20 Z M 577.88 286.00 L 580.69 288.06 L 580.34 292.59 L 574.95 298.81 L 569.67 299.53 L 568.09 297.62 L 568.33 295.70 L 573.95 293.67 L 575.47 287.72 Z M 371.44 283.56 L 374.67 283.70 L 375.98 287.64 L 375.30 289.67 L 371.66 288.59 Z M 584.44 278.56 L 589.75 278.05 L 593.69 279.69 L 596.98 294.95 L 595.34 312.47 L 589.70 316.34 L 587.67 322.28 L 586.12 323.00 L 583.31 320.38 L 583.23 311.23 L 588.92 303.42 L 591.00 289.62 L 589.88 285.88 L 584.33 283.27 Z M 372.88 269.00 L 374.77 270.05 L 374.91 275.16 L 373.67 281.27 L 371.64 281.98 L 370.23 280.77 L 370.09 273.25 L 370.88 270.12 Z M 354.44 263.56 L 358.47 263.09 L 359.95 264.66 L 359.05 274.17 L 360.98 281.36 L 358.77 290.09 L 357.36 290.98 L 355.33 290.31 L 354.16 287.03 Z M 432.25 252.00 L 439.80 252.98 L 442.81 257.67 L 451.81 258.23 L 460.03 261.31 L 461.81 263.28 L 461.69 266.03 L 460.34 267.34 L 455.41 267.91 L 439.12 267.12 L 436.22 262.31 L 427.19 259.72 L 424.14 256.67 L 426.20 252.98 Z M 370.44 248.56 L 373.62 248.09 L 374.95 249.66 L 371.84 258.06 L 364.56 258.56 L 364.23 255.86 L 368.81 253.69 Z M 522.31 234.00 L 533.56 240.56 L 535.31 250.12 L 540.56 253.56 L 543.81 259.77 L 553.19 262.47 L 559.84 268.67 L 577.25 270.19 L 579.81 272.12 L 579.56 274.44 L 574.69 277.31 L 565.98 286.05 L 563.31 290.69 L 557.23 294.00 L 558.00 305.06 L 557.09 314.31 L 558.33 321.25 L 562.81 327.28 L 563.69 334.94 L 558.33 338.69 L 555.56 345.44 L 550.16 348.09 L 547.56 353.44 L 542.16 356.09 L 540.12 359.88 L 535.34 362.70 L 530.28 368.53 L 520.03 372.28 L 514.12 376.69 L 503.14 381.09 L 496.14 385.77 L 487.94 388.16 L 483.67 392.86 L 475.05 394.23 L 471.14 396.09 L 467.44 401.56 L 456.50 401.34 L 455.09 397.75 L 455.47 390.00 L 462.56 385.44 L 463.98 374.17 L 468.95 371.02 L 474.56 364.62 L 479.66 362.30 L 483.58 357.47 L 503.84 348.91 L 505.47 344.62 L 507.62 343.03 L 515.83 347.67 L 526.17 347.67 L 530.88 345.12 L 535.16 338.94 L 540.84 335.97 L 542.84 328.31 L 543.33 319.81 L 546.77 318.19 L 550.67 309.12 L 551.16 297.06 L 552.97 288.61 L 552.12 286.12 L 549.12 284.33 L 536.38 284.23 L 531.44 286.56 L 529.44 291.56 L 520.19 292.23 L 514.05 294.19 L 504.72 300.31 L 500.30 306.67 L 495.44 308.56 L 493.81 322.41 L 489.28 326.09 L 486.67 343.25 L 482.50 347.72 L 478.31 347.84 L 477.09 346.47 L 480.62 327.22 L 482.75 324.31 L 487.38 321.69 L 488.33 308.89 L 493.84 295.88 L 496.23 282.95 L 502.91 271.78 L 505.33 251.80 L 510.77 246.19 L 513.88 239.12 Z M 265.44 232.56 L 270.27 232.33 L 273.72 236.53 L 279.62 238.66 L 282.44 244.44 L 287.67 246.73 L 287.56 251.44 L 284.69 252.84 L 275.56 253.56 L 274.34 249.39 L 267.23 242.53 Z M 538.88 231.00 L 541.81 233.28 L 541.09 236.77 L 538.28 236.81 L 536.19 234.88 L 536.47 232.62 Z M 590.44 229.56 L 593.62 229.09 L 598.91 231.14 L 603.62 236.53 L 609.88 238.88 L 610.91 242.62 L 603.70 245.33 L 600.12 250.69 L 587.97 254.19 L 583.16 258.91 L 576.38 260.00 L 571.12 259.00 L 565.73 259.98 L 558.50 259.34 L 555.62 254.66 L 549.88 252.69 L 544.98 248.97 L 541.09 240.62 L 541.77 237.33 L 548.23 237.33 L 551.56 243.56 L 557.53 246.58 L 559.42 251.30 L 567.81 251.77 L 570.67 250.30 L 570.77 247.86 L 561.47 241.38 L 558.09 234.78 L 558.56 232.44 L 564.09 231.23 L 573.05 237.81 L 579.31 240.33 L 581.81 244.77 L 586.72 245.97 L 589.53 244.42 L 591.00 240.88 L 586.03 232.62 L 587.62 230.47 Z M 411.44 227.56 L 415.11 227.05 L 437.28 230.47 L 441.34 235.30 L 447.02 239.11 L 448.00 242.62 L 447.30 246.42 L 445.09 248.53 L 442.30 248.98 L 427.42 245.05 L 424.44 246.56 L 422.61 251.34 L 418.72 251.67 L 416.53 243.94 L 411.77 242.53 L 410.47 240.95 L 410.09 231.62 Z M 607.44 223.56 L 610.44 223.44 L 610.56 226.44 L 607.56 226.56 Z M 314.44 223.56 L 318.44 223.44 L 318.56 227.44 L 315.12 227.12 Z M 307.44 215.56 L 311.44 215.44 L 311.56 219.44 L 307.56 219.56 Z M 290.44 215.56 L 295.88 215.88 L 299.09 221.84 L 304.12 225.12 L 317.91 241.23 L 322.53 249.38 L 323.78 257.94 L 327.92 264.23 L 327.53 267.09 L 325.28 269.53 L 323.22 269.91 L 317.62 267.53 L 313.88 261.88 L 308.66 259.34 L 300.36 252.34 L 297.30 247.34 L 291.28 242.12 L 289.53 237.62 L 286.09 233.94 L 285.02 229.39 L 287.19 218.12 Z M 220.44 206.56 L 229.53 206.09 L 234.56 207.56 L 243.33 221.31 L 248.77 224.81 L 251.70 233.56 L 256.53 237.72 L 255.88 243.12 L 253.31 244.00 L 250.20 242.88 L 242.14 235.38 L 235.88 231.88 L 234.77 225.05 L 232.56 220.56 L 225.91 214.14 L 217.33 212.28 L 217.47 208.67 Z M 190.44 206.56 L 197.91 206.23 L 208.28 210.81 L 216.44 212.44 L 219.23 221.19 L 225.72 226.03 L 226.95 232.88 L 226.19 234.77 L 222.94 235.84 L 207.61 234.91 L 202.12 229.28 L 195.69 226.67 L 193.33 223.47 L 189.67 223.47 L 188.19 225.44 L 188.23 229.05 L 191.81 231.97 L 194.47 238.42 L 197.84 240.94 L 199.98 251.36 L 198.47 252.91 L 192.88 252.00 L 187.81 253.47 L 185.05 256.61 L 186.09 259.84 L 194.23 260.67 L 197.53 258.28 L 198.56 253.44 L 208.19 252.67 L 214.05 248.19 L 218.91 246.33 L 237.39 247.09 L 239.69 248.88 L 239.56 251.44 L 235.56 253.44 L 232.42 258.53 L 226.56 261.44 L 223.38 267.53 L 212.69 270.33 L 212.16 273.88 L 215.69 275.84 L 224.28 275.30 L 228.62 270.47 L 234.84 267.91 L 238.88 262.28 L 248.09 256.14 L 254.12 254.00 L 258.81 257.12 L 257.84 262.88 L 254.95 267.02 L 250.66 269.36 L 246.94 275.02 L 240.03 277.28 L 235.31 282.69 L 233.06 283.30 L 199.22 283.67 L 195.42 277.47 L 188.14 274.67 L 173.47 263.38 L 170.38 257.47 L 165.16 253.06 L 162.77 245.14 L 158.33 243.27 L 158.23 238.95 L 162.25 238.19 L 167.59 241.94 L 177.00 243.91 L 182.91 243.77 L 186.12 241.88 L 186.98 238.97 L 185.44 233.44 L 174.06 233.69 L 167.16 230.06 L 164.00 225.88 L 165.78 223.31 L 171.31 220.69 L 174.81 215.23 L 184.91 211.86 Z M 410.44 202.56 L 413.12 202.31 L 415.81 205.77 L 420.16 207.47 L 428.97 213.98 L 431.00 217.31 L 429.69 220.31 L 426.56 221.72 L 415.11 222.95 L 411.12 222.12 L 409.02 217.38 Z M 428.31 199.00 L 430.44 199.44 L 431.00 201.69 L 430.12 203.88 L 427.88 205.00 L 425.00 201.88 Z M 440.44 196.56 L 444.16 196.09 L 450.00 198.77 L 458.12 200.31 L 462.88 206.88 L 469.30 211.67 L 471.98 225.64 L 470.00 233.25 L 472.00 242.50 L 469.28 253.67 L 465.44 253.44 L 461.91 244.16 L 458.62 242.53 L 456.14 239.44 L 455.00 225.94 L 455.98 209.30 L 454.92 206.33 L 450.59 206.19 L 448.31 208.16 L 448.95 220.94 L 447.38 226.44 L 443.12 230.00 L 439.47 227.19 Z M 489.44 184.56 L 492.44 184.44 L 492.56 187.44 L 489.56 187.56 Z M 257.44 177.56 L 262.44 177.44 L 265.39 182.34 L 272.12 185.12 L 272.97 188.72 L 270.12 192.00 L 262.78 188.09 L 260.12 188.88 L 258.23 193.28 L 256.84 206.97 L 253.66 207.95 L 249.02 200.64 L 251.33 183.77 Z M 480.44 175.56 L 485.44 175.44 L 485.56 180.44 L 480.56 180.56 Z M 474.88 167.00 L 478.00 169.88 L 475.12 173.00 L 472.00 170.12 Z M 519.44 163.56 L 525.00 163.23 L 526.67 165.80 L 525.69 178.03 L 519.36 181.66 L 515.55 187.34 L 507.78 187.67 L 507.23 184.86 L 509.84 183.06 L 512.31 175.78 L 517.30 171.47 Z M 307.44 150.56 L 311.94 150.98 L 315.23 157.19 L 319.30 160.34 L 321.88 164.88 L 329.84 169.31 L 327.77 186.95 L 325.70 187.98 L 322.56 187.56 L 320.12 183.12 L 314.70 179.66 L 310.88 170.88 L 308.69 170.00 L 306.33 170.81 L 306.44 180.44 L 312.30 184.39 L 322.67 201.80 L 322.67 210.20 L 321.44 212.56 L 318.47 213.91 L 313.88 212.88 L 311.81 207.97 L 306.70 203.61 L 304.72 198.03 L 302.28 195.47 L 298.88 196.12 L 296.67 202.28 L 295.03 202.98 L 292.33 202.27 L 291.05 196.58 L 292.31 191.88 L 295.77 187.91 L 295.02 178.64 L 298.77 169.91 L 299.33 162.78 L 304.53 157.28 Z M 325.31 135.00 L 328.34 136.47 L 328.98 142.39 L 327.67 153.22 L 324.88 156.00 L 322.31 154.12 L 319.00 145.75 L 321.28 138.03 Z M 337.44 130.56 L 342.88 130.88 L 345.47 136.42 L 353.53 144.62 L 358.47 155.38 L 361.03 157.72 L 367.12 160.12 L 368.23 170.77 L 372.00 185.81 L 366.53 209.42 L 361.12 212.88 L 358.30 217.66 L 352.56 221.44 L 349.22 226.69 L 340.67 231.86 L 335.19 233.00 L 332.23 231.95 L 332.98 225.11 L 336.67 222.31 L 339.31 216.69 L 344.44 213.56 L 347.31 208.69 L 352.42 205.53 L 360.25 197.75 L 362.00 193.81 L 360.44 188.44 L 354.75 188.33 L 353.09 189.16 L 350.34 195.64 L 345.69 198.31 L 342.42 203.53 L 337.16 206.09 L 334.61 210.34 L 331.61 210.91 L 329.47 209.14 L 329.16 202.50 L 332.09 194.14 L 337.30 189.61 L 339.98 184.03 L 344.53 180.38 L 346.47 173.67 L 351.53 169.38 L 353.91 164.16 L 353.12 158.12 L 348.80 157.14 L 345.70 159.72 L 344.12 169.88 L 340.95 170.97 L 338.19 168.88 L 337.00 163.81 L 337.98 152.47 Z M 490.88 127.00 L 492.56 127.56 L 493.67 129.86 L 495.00 143.88 L 493.53 147.42 L 489.16 150.09 L 488.05 152.66 L 489.05 156.77 L 492.53 159.62 L 493.84 162.69 L 493.69 170.47 L 491.12 173.00 L 479.38 161.22 L 476.00 153.81 L 477.08 149.25 L 481.92 143.42 L 486.38 130.94 Z M 504.44 122.56 L 507.62 122.66 L 510.09 127.84 L 515.81 131.12 L 512.19 137.75 L 512.56 141.56 L 514.72 141.81 L 522.38 137.03 L 524.69 138.88 L 525.95 143.59 L 525.53 149.14 L 520.70 153.48 L 518.81 160.03 L 512.98 164.03 L 509.77 171.19 L 507.70 171.98 L 504.33 171.20 L 504.09 164.16 L 505.47 160.62 L 509.67 157.17 L 509.91 148.47 L 508.91 145.16 L 505.56 143.56 L 504.23 140.81 Z M 234.56 411.44 L 233.16 412.28 L 233.33 414.95 L 237.22 416.84 L 240.81 416.53 L 238.61 411.66 Z M 222.00 406.88 L 223.22 408.84 L 226.94 408.02 L 225.83 406.14 Z M 600.00 454.31 L 600.98 455.95 L 602.95 455.02 L 602.02 453.05 Z"/>
  </g>
</svg>
